PathFileType	4	(X/Y/Z)	/Users/itak/Documents/Research/Walk-IL/dataset/trc/00344_00011.trc
DataRate	CameraRate	NumFrames	NumMarkers	Units	OrigDataRate	OrigDataStartFrame	OrigNumFrames
100.000000	100.000000	4	53	mm	100.000000	602	688
Frame#	Time	RPSI			LPSI			L3			STRN			T10			C7			CLAV			RBAK			LBAK			LSHO			LUPA			LAEL			LAOL			LWTS			LWPS			LFRA			LIFD			LHPS			LHTS			RSHO			RUPA			RAEL			RAOL			RWTS			RWPS			RFRA			RIFD			RHTS			RHPS			RBHD			LFHD			RFHD			LBHD			LHIP			RHIP			RASI			LASI			LKNE			LTHI			LANK			LTIP			LTOE			LMT1			LMT5			LHEE			RKNE			RTHI			RANK			RTIP			RTOE			RMT1			RMT5			RHEE			
		X1	Y1	Z1	X2	Y2	Z2	X3	Y3	Z3	X4	Y4	Z4	X5	Y5	Z5	X6	Y6	Z6	X7	Y7	Z7	X8	Y8	Z8	X9	Y9	Z9	X10	Y10	Z10	X11	Y11	Z11	X12	Y12	Z12	X13	Y13	Z13	X14	Y14	Z14	X15	Y15	Z15	X16	Y16	Z16	X17	Y17	Z17	X18	Y18	Z18	X19	Y19	Z19	X20	Y20	Z20	X21	Y21	Z21	X22	Y22	Z22	X23	Y23	Z23	X24	Y24	Z24	X25	Y25	Z25	X26	Y26	Z26	X27	Y27	Z27	X28	Y28	Z28	X29	Y29	Z29	X30	Y30	Z30	X31	Y31	Z31	X32	Y32	Z32	X33	Y33	Z33	X34	Y34	Z34	X35	Y35	Z35	X36	Y36	Z36	X37	Y37	Z37	X38	Y38	Z38	X39	Y39	Z39	X40	Y40	Z40	X41	Y41	Z41	X42	Y42	Z42	X43	Y43	Z43	X44	Y44	Z44	X45	Y45	Z45	X46	Y46	Z46	X47	Y47	Z47	X48	Y48	Z48	X49	Y49	Z49	X50	Y50	Z50	X51	Y51	Z51	X52	Y52	Z52	X53	Y53	Z53	

603	6.02	-516.982666015625	976.2138671875	951.4325561523438	-499.3689880371094	972.570068359375	823.046142578125	-508.9084777832031	1031.053344726562	881.8123779296875	-284.8836364746094	1221.244018554688	893.0499877929688	-520.8914184570312	1144.557495117188	853.7236938476562	-480.7154235839844	1393.027465820312	829.1370239257812	-328.7763366699219	1344.942504882812	870.7031860351562	-539.15771484375	1257.687255859375	896.6060180664062	-470.6812744140625	1350.268920898438	731.2534790039062	-376.6146850585938	1366.873413085938	692.4378051757812	-379.6977233886719	1244.216186523438	628.5218505859375	-356.3591003417969	1041.841552734375	623.9838256835938	-425.9879455566406	1027.519653320312	671.7412109375	-259.0317993164062	801.4317626953125	683.3617553710938	-289.8954467773438	791.615478515625	622.6326904296875	-336.8801574707031	937.73388671875	619.4696044921875	-256.4514770507812	641.7164916992188	689.26708984375	-293.4385681152344	720.46484375	627.2119750976562	-244.7624664306641	722.8246459960938	667.275146484375	-461.0401916503906	1394.625366210938	998.9756469726562	-485.5656433105469	1337.178833007812	1064.093872070312	-479.0912780761719	1083.175537109375	1151.063232421875	-494.1701354980469	1056.590942382812	1061.691040039062	-344.1397094726562	867.8197021484375	1178.333374023438	-390.3740539550781	859.5117797851562	1238.218139648438	-453.3868713378906	1021.423217773438	1180.237670898438	-318.2654724121094	700.4757080078125	1209.144653320312	-310.2649841308594	773.3743896484375	1212.819091796875	-367.9798889160156	775.6727905273438	1250.70068359375	-441.7286987304688	1609.636962890625	908.5087280273438	-253.111572265625	1606.378295898438	819.2098999023438	-279.1258544921875	1615.228271484375	916.5867309570312	-431.5578308105469	1593.103759765625	765.1730346679688	-391.333984375	908.8513793945312	732.9840698242188	-450.0603942871094	928.5802001953125	1071.129760742188	-342.2003173828125	958.521240234375	1038.69677734375	-288.0776977539062	940.275634765625	806.2857666015625	-346.3392944335938	460.9664306640625	736.3405151367188	-346.3491516113281	596.7916259765625	734.3496704101562	-622.92822265625	151.3304138183594	612.9144897460938	-480.37109375	291.5888366699219	665.869384765625	-540.2471923828125	37.2829704284668	752.9823608398438	-608.0573120117188	60.59273529052734	750.0462646484375	-541.6531372070312	64.79901885986328	655.0960693359375	-680.8276977539062	177.749267578125	654.0081176757812	-332.4346313476562	473.1667175292969	1103.512817382812	-352.0132751464844	734.248779296875	1107.307739257812	-349.7004089355469	48.89057540893555	1109.187622070312	-308.2689819335938	356.3642883300781	1107.296020507812	-149.1040496826172	47.85964584350586	1094.030029296875	-193.9430847167969	46.98310470581055	1043.562377929688	-255.3063812255859	35.79512786865234	1145.281494140625	-387.6221923828125	53.34352111816406	1050.402099609375	
604	6.03	-513.2047119140625	976.578369140625	957.58740234375	-496.7733764648438	972.7708740234375	828.921630859375	-504.8829040527344	1031.707275390625	888.6963500976562	-281.0542297363281	1221.826782226562	897.4356079101562	-517.3911743164062	1145.658325195312	861.006591796875	-477.3146667480469	1394.035034179688	835.8240966796875	-324.9040222167969	1345.645629882812	875.6817626953125	-535.0147094726562	1258.682495117188	903.9570922851562	-468.4176940917969	1351.23974609375	737.8749389648438	-374.693359375	1367.643920898438	697.912353515625	-378.9159545898438	1245.024536132812	634.13916015625	-356.2331237792969	1042.547241210938	628.5084838867188	-425.1024169921875	1028.30126953125	677.3175048828125	-258.8958435058594	801.7186279296875	685.5093994140625	-290.90283203125	792.0282592773438	625.3570556640625	-337.2361755371094	938.447998046875	623.3245849609375	-256.5338745117188	642.2743530273438	691.814697265625	-294.7659912109375	720.7197265625	629.9017333984375	-245.2109222412109	723.041015625	669.200439453125	-455.5519714355469	1395.526977539062	1005.541564941406	-479.1950988769531	1338.189819335938	1071.050537109375	-470.759521484375	1084.446411132812	1159.083740234375	-487.4576721191406	1057.5009765625	1070.150512695312	-333.1721496582031	870.7514038085938	1184.031982421875	-378.1291809082031	861.7943725585938	1244.764038085938	-444.0780029296875	1022.913330078125	1187.944458007812	-303.5093994140625	704.1664428710938	1215.084838867188	-296.8602294921875	777.1917724609375	1218.389526367188	-354.0272827148438	778.503662109375	1257.16162109375	-437.8160095214844	1610.45849609375	914.5602416992188	-250.2556304931641	1607.600952148438	823.10595703125	-275.155029296875	1616.470336914062	920.7931518554688	-429.23046875	1593.817504882812	771.0928344726562	-389.0150756835938	909.79541015625	737.6295166015625	-445.2243347167969	928.7586669921875	1076.68896484375	-337.4166564941406	958.64501953125	1043.659545898438	-285.5140075683594	941.1572875976562	810.7354125976562	-337.9894104003906	461.7900695800781	741.224853515625	-339.5711669921875	597.2388305664062	739.3622436523438	-619.9895629882812	157.5399932861328	618.470947265625	-474.7796325683594	294.68994140625	670.9049072265625	-537.7749633789062	36.04645156860352	754.363037109375	-605.052734375	63.18585968017578	753.2435302734375	-540.2857055664062	67.82839202880859	657.272216796875	-676.6815795898438	184.0051727294922	660.8256225585938	-330.229248046875	472.7509155273438	1106.124877929688	-347.80517578125	734.1226196289062	1111.318603515625	-349.6015014648438	48.88817596435547	1109.2060546875	-306.7965393066406	355.8862609863281	1109.415649414062	-148.9704132080078	47.61415863037109	1093.89599609375	-193.8501281738281	46.85331344604492	1043.472290039062	-255.1746978759766	35.72365188598633	1145.32568359375	-387.5283203125	53.5741081237793	1050.363159179688	
605	6.04	-509.6098327636719	976.8505249023438	963.4891357421875	-494.300048828125	972.9185791015625	834.5792236328125	-501.1861267089844	1032.333129882812	895.2409057617188	-277.3548583984375	1222.327758789062	901.6957397460938	-513.9373779296875	1146.789672851562	868.1550903320312	-473.9535217285156	1395.009155273438	842.3187866210938	-321.1183776855469	1346.256713867188	880.5211181640625	-530.8939819335938	1259.633666992188	911.1195068359375	-466.15673828125	1352.176635742188	744.3046875	-372.7803039550781	1368.349731445312	703.2471313476562	-378.0452880859375	1245.759155273438	639.6416625976562	-356.0192565917969	1043.1767578125	633.0051879882812	-424.1657409667969	1028.9931640625	682.70751953125	-258.7175903320312	802.031005859375	687.933837890625	-291.7084655761719	792.4116821289062	628.3082885742188	-337.4554138183594	939.0902099609375	627.22900390625	-256.2864379882812	642.9417114257812	694.8010864257812	-295.82861328125	720.9998168945312	632.74462890625	-245.4844055175781	723.3189697265625	671.4827880859375	-450.1731872558594	1396.359008789062	1011.9130859375	-472.9353942871094	1339.11767578125	1077.782104492188	-462.5252075195312	1085.690063476562	1166.894897460938	-480.8808288574219	1058.34521484375	1078.42529296875	-322.3379516601562	873.6878051757812	1189.453857421875	-366.0708618164062	864.0514526367188	1251.0107421875	-434.8497009277344	1024.3671875	1195.403076171875	-288.9328308105469	707.89697265625	1220.708129882812	-283.6641540527344	781.0074462890625	1223.66943359375	-340.2568969726562	781.3681640625	1263.314453125	-433.9439697265625	1611.220825195312	920.5029296875	-247.4418487548828	1608.737670898438	826.9546508789062	-271.2355346679688	1617.63134765625	924.9176025390625	-426.8974304199219	1594.470458984375	776.9066772460938	-386.7477416992188	910.7350463867188	742.040771484375	-440.6236267089844	928.9049682617188	1082.02001953125	-332.8551025390625	958.7852172851562	1048.421875	-283.0044250488281	942.0436401367188	814.9348754882812	-329.7637634277344	462.6952209472656	745.9276733398438	-332.958740234375	597.7589111328125	744.138671875	-617.0523681640625	163.6838226318359	624.3405151367188	-469.2502136230469	297.7961730957031	675.976806640625	-534.5799560546875	34.77164459228516	755.742431640625	-601.3818359375	65.86083221435547	756.7515869140625	-538.7352905273438	71.15070343017578	659.6262817382812	-672.5619506835938	189.9402313232422	668.0979614257812	-328.0884094238281	472.4417724609375	1108.784057617188	-343.6592407226562	734.0481567382812	1115.1025390625	-349.5324096679688	48.88386917114258	1109.25439453125	-305.3447875976562	355.4520568847656	1111.457641601562	-148.8547668457031	47.44676208496094	1093.783569335938	-193.7779388427734	46.74751281738281	1043.390869140625	-255.0609283447266	35.64672470092773	1145.369995117188	-387.4455871582031	53.79894256591797	1050.35986328125	
606	6.05	-506.1620178222656	977.0931396484375	969.131591796875	-491.910888671875	973.091064453125	840.0150756835938	-497.7908325195312	1032.928466796875	901.4271850585938	-273.7739562988281	1222.78564453125	905.8352661132812	-510.5307006835938	1147.939453125	875.1334838867188	-470.6505126953125	1395.952270507812	848.6174926757812	-317.4350280761719	1346.8115234375	885.2136840820312	-526.8555908203125	1260.562744140625	918.0869140625	-463.9163208007812	1353.095825195312	750.5314331054688	-370.8951416015625	1369.027709960938	708.4383544921875	-377.0970458984375	1246.460815429688	644.9985961914062	-355.7169799804688	1043.776733398438	637.4908447265625	-423.1882629394531	1029.650512695312	687.9452514648438	-258.4890747070312	802.3792724609375	690.6390991210938	-292.3121337890625	792.8058471679688	631.477294921875	-337.5355834960938	939.7053833007812	631.1995849609375	-255.7940063476562	643.6768188476562	698.1121215820312	-296.6221008300781	721.3369140625	635.7529296875	-245.5964660644531	723.6746826171875	674.0919189453125	-444.9304504394531	1397.146484375	1018.073791503906	-466.8155822753906	1339.980590820312	1084.267333984375	-454.3887329101562	1086.927368164062	1174.460327148438	-474.4208984375	1059.148803710938	1086.4736328125	-311.6571655273438	876.6300048828125	1194.601318359375	-354.220947265625	866.30126953125	1256.94775390625	-425.7148742675781	1025.805908203125	1202.580200195312	-274.6383666992188	711.6466674804688	1225.987060546875	-270.7244873046875	784.8184204101562	1228.647094726562	-326.7191467285156	784.2694091796875	1269.14013671875	-430.108642578125	1611.942016601562	926.327392578125	-244.6589813232422	1609.785522460938	830.7540283203125	-267.3656921386719	1618.705078125	928.9564819335938	-424.5632019042969	1595.084838867188	782.6094360351562	-384.5415649414062	911.6751098632812	746.2371215820312	-436.2458801269531	929.0595092773438	1087.116821289062	-328.5227355957031	958.967041015625	1052.993286132812	-280.559326171875	942.9371337890625	818.9064331054688	-321.7190551757812	463.6936950683594	750.4147338867188	-326.5859985351562	598.4014282226562	748.6549072265625	-614.1220703125	169.6075286865234	630.5466918945312	-463.8116455078125	300.8641357421875	681.0838012695312	-530.5045166015625	33.63274383544922	757.1224365234375	-596.8714599609375	68.50361633300781	760.5763549804688	-536.87548828125	74.70169067382812	662.1893310546875	-668.4468994140625	195.3839263916016	675.8594360351562	-326.0083618164062	472.2297973632812	1111.468139648438	-339.6309814453125	734.0015869140625	1118.677734375	-349.4835510253906	48.88217544555664	1109.31884765625	-303.8822021484375	355.0589294433594	1113.389038085938	-148.7493286132812	47.32220458984375	1093.686157226562	-193.7157135009766	46.65203094482422	1043.316528320312	-254.9674530029297	35.5761833190918	1145.406372070312	-387.3690490722656	54.01013946533203	1050.383911132812	
